<svg width="21" height="20" viewBox="0 0 21 20" fill="none" xmlns="http://www.w3.org/2000/svg">
<path d="M18.6254 5.1802L17.3029 6.50272L13.9966 3.19233L15.3191 1.86981C15.5885 1.60041 16.0579 1.60041 16.3273 1.86981L18.6254 4.17198C18.903 4.44955 18.903 4.90263 18.6254 5.1802ZM7.57583 16.242L4.26953 12.9316L12.8169 4.37199L16.1232 7.68237L7.57583 16.242ZM3.50622 14.5276L5.97983 17.0053L2.53474 17.9768L3.50622 14.5276ZM19.8051 2.99232L17.507 0.690158C17.058 0.241155 15.4375 -0.607871 14.1435 0.690158L2.49801 12.3439C2.39596 12.4459 2.32249 12.5684 2.28575 12.7071L0.530553 18.9565C0.448916 19.2463 0.534635 19.5565 0.742809 19.7728C0.955066 19.9892 1.37958 20.0259 1.55918 19.9851L7.80442 18.2258C7.9432 18.1891 8.06565 18.1156 8.1677 18.0135L19.8051 6.35985C20.7316 5.43327 20.7316 3.92299 19.8051 2.99232Z" fill="black"/>
</svg>
