<svg width="16" height="16" viewBox="0 0 16 16" fill="none" xmlns="http://www.w3.org/2000/svg">
<path d="M14.5003 4.14416L13.4423 5.20217L10.7973 2.55387L11.8553 1.49585C12.0708 1.28033 12.4463 1.28033 12.6619 1.49585L14.5003 3.33758C14.7224 3.55964 14.7224 3.9221 14.5003 4.14416ZM5.66067 12.9936L3.01562 10.3453L9.85355 3.49759L12.4986 6.1459L5.66067 12.9936ZM2.40498 11.6221L4.38386 13.6043L1.62779 14.3814L2.40498 11.6221ZM15.4441 2.39386L13.6056 0.552127C13.2464 0.192924 11.95 -0.486297 10.9148 0.552127L1.5984 9.87508C1.51677 9.95672 1.45799 10.0547 1.4286 10.1657L0.0244423 15.1652C-0.0408673 15.397 0.0277078 15.6452 0.194247 15.8183C0.364053 15.9913 0.703663 16.0207 0.847344 15.9881L5.84353 14.5806C5.95456 14.5513 6.05252 14.4925 6.13416 14.4108L15.4441 5.08788C16.1853 4.34662 16.1853 3.13839 15.4441 2.39386Z" fill="black"/>
</svg>
